<?xml version="1.0" standalone="no"?>
<!DOCTYPE svg PUBLIC "-//W3C//DTD SVG 20010904//EN"
 "http://www.w3.org/TR/2001/REC-SVG-20010904/DTD/svg10.dtd">
<svg version="1.0" xmlns="http://www.w3.org/2000/svg"
 width="512.000000pt" height="512.000000pt" viewBox="0 0 512.000000 512.000000"
 preserveAspectRatio="xMidYMid meet">

<g transform="translate(0.000000,512.000000) scale(0.100000,-0.100000)"
fill="#000000" stroke="none">
<path d="M2275 4250 c-231 -32 -427 -188 -485 -385 l-12 -41 -71 19 c-112 29
-267 20 -372 -21 -246 -97 -400 -334 -382 -588 l6 -83 -51 -11 c-161 -34 -304
-186 -340 -361 -10 -49 -16 -59 -33 -59 -11 0 -43 -11 -72 -24 -91 -43 -85
-25 -285 -823 -199 -795 -196 -774 -141 -875 15 -28 46 -64 67 -80 86 -62 -81
-58 2456 -58 2537 0 2370 -4 2456 58 21 16 52 52 67 80 55 100 58 81 -137 862
-97 388 -186 725 -198 749 -26 50 -79 89 -146 106 -46 12 -47 13 -54 59 -31
216 -190 404 -380 450 -25 6 -28 11 -28 47 0 55 -35 153 -77 216 -42 64 -101
115 -169 145 -64 28 -191 36 -261 16 l-51 -15 -16 66 c-24 97 -63 168 -131
236 -138 139 -306 175 -504 109 l-74 -25 -44 50 c-120 137 -335 209 -538 181z
m245 -136 c112 -32 191 -91 242 -181 16 -29 38 -55 49 -58 12 -4 39 3 67 18
111 57 235 76 329 49 143 -42 253 -200 253 -365 0 -100 37 -120 133 -70 40 20
71 27 132 31 73 4 85 1 135 -25 102 -54 168 -176 157 -294 -3 -36 -1 -64 7
-74 6 -9 46 -24 88 -35 43 -10 94 -28 115 -39 89 -45 179 -180 201 -299 l9
-52 -1879 0 -1880 0 7 33 c13 57 52 134 91 177 56 62 122 91 222 99 113 9 111
6 81 169 -44 237 125 482 368 532 79 17 205 8 278 -19 81 -31 128 -37 143 -18
7 8 17 41 22 72 44 270 336 431 630 349z m2089 -1529 c16 -8 33 -27 39 -42 6
-15 88 -336 183 -713 122 -492 169 -695 166 -722 -7 -51 -39 -93 -87 -112 -37
-15 -248 -16 -2350 -16 -2102 0 -2313 1 -2350 16 -48 19 -80 61 -87 112 -3 27
44 230 166 722 95 377 177 698 183 713 24 60 -120 56 2086 57 1750 0 2027 -2
2051 -15z"/>
<path d="M2437 3732 c-42 -46 7 -117 63 -89 38 20 47 43 30 75 -20 34 -68 42
-93 14z"/>
<path d="M2177 3522 c-34 -38 -11 -94 38 -94 28 0 65 31 65 56 0 48 -71 74
-103 38z"/>
<path d="M2517 3432 c-23 -25 -22 -65 2 -86 26 -24 60 -17 84 17 l21 27 -21
28 c-25 33 -63 40 -86 14z"/>
<path d="M3227 3282 c-23 -25 -22 -65 2 -86 26 -24 60 -17 84 17 l21 27 -21
28 c-25 33 -63 40 -86 14z"/>
<path d="M1417 3272 c-45 -50 13 -124 69 -88 31 21 39 52 20 81 -20 30 -65 33
-89 7z"/>
<path d="M3542 3114 c-44 -31 -16 -104 40 -104 24 0 58 35 58 60 0 25 -34 60
-58 60 -10 0 -28 -7 -40 -16z"/>
<path d="M1682 3104 c-43 -30 -17 -104 36 -104 25 0 62 33 62 55 0 19 -44 65
-62 65 -8 0 -24 -7 -36 -16z"/>
<path d="M3259 3026 c-19 -9 -24 -19 -24 -51 0 -34 4 -41 27 -49 44 -15 78 6
78 48 0 49 -38 74 -81 52z"/>
<path d="M2255 2429 c-117 -68 -146 -225 -65 -353 46 -72 118 -106 195 -92
122 23 181 204 110 335 -43 79 -91 114 -163 118 -32 2 -66 -2 -77 -8z m102
-124 c12 -8 29 -35 39 -60 14 -38 15 -52 5 -84 -15 -51 -35 -67 -69 -55 -37
13 -66 68 -66 125 0 75 41 109 91 74z"/>
<path d="M2725 2423 c-47 -24 -75 -54 -103 -108 -35 -67 -37 -171 -5 -231 71
-135 230 -139 313 -8 80 126 50 291 -62 350 -36 18 -105 17 -143 -3z m110
-123 c43 -47 11 -174 -47 -194 -34 -12 -54 4 -69 55 -10 32 -9 46 5 84 28 71
75 94 111 55z"/>
<path d="M1863 2119 c-61 -30 -88 -79 -87 -154 1 -76 26 -127 93 -187 138
-124 321 -66 321 102 0 32 -7 74 -15 94 -37 87 -145 166 -230 166 -22 0 -59
-9 -82 -21z m135 -119 c79 -48 100 -170 29 -170 -80 0 -169 127 -122 173 22
22 53 21 93 -3z"/>
<path d="M3120 2131 c-73 -23 -146 -88 -175 -157 -19 -46 -19 -136 -1 -172 46
-88 154 -114 255 -63 91 47 162 172 146 259 -19 104 -121 164 -225 133z m94
-127 c20 -19 20 -35 2 -78 -29 -69 -114 -116 -152 -85 -21 17 -14 92 12 121
47 53 109 72 138 42z"/>
<path d="M2434 1941 c-176 -65 -319 -226 -355 -398 -27 -130 8 -282 79 -344
58 -52 95 -62 207 -58 122 3 268 3 395 -1 116 -3 163 13 219 76 50 57 72 130
72 233 0 193 -120 375 -308 468 -68 33 -85 37 -167 40 -71 3 -102 -1 -142 -16z
m264 -136 c83 -42 157 -117 199 -203 37 -74 45 -216 16 -271 -33 -63 -63 -77
-156 -71 -104 5 -277 5 -387 -1 -98 -5 -127 7 -156 64 -25 47 -30 152 -10 219
34 117 141 234 253 278 27 11 74 19 109 20 51 0 74 -6 132 -35z"/>
</g>
</svg>
