<?xml version="1.0" encoding="UTF-8"?>
<svg version="1.1" xmlns="http://www.w3.org/2000/svg" width="600" height="600">
<path d="M0 0 C4.86370298 3.91136953 9.38753916 7.88234714 13 13 C13.73605469 12.72285156 14.47210938 12.44570312 15.23046875 12.16015625 C16.69419922 11.61681641 16.69419922 11.61681641 18.1875 11.0625 C19.15042969 10.70285156 20.11335938 10.34320313 21.10546875 9.97265625 C33.12348071 5.93421498 46.78080671 6.9185863 58.25 11.99609375 C70.14388937 17.96368755 78.2958066 27.47493126 83.09375 39.8125 C84.44502259 44.01645916 85.13291587 47.56686473 85 52 C85.70125 51.690625 86.4025 51.38125 87.125 51.0625 C96.81705724 47.48065276 107.5383349 48.04520307 117 52 C128.79042897 57.68277432 135.06022767 66.02144665 140 78 C141.60111913 83.0178614 142.27093373 87.71679219 142 93 C143.258125 93.20625 144.51625 93.4125 145.8125 93.625 C157.16962632 96.21021714 166.04747783 103.0686799 172.75 112.44921875 C178.5141116 121.62856648 183.71591845 132.90326397 183 144 C183.99 143.9175 184.98 143.835 186 143.75 C191.36326261 143.7933395 195.70340608 145.78158437 199.55900574 149.50593567 C204.52254362 155.64231524 206.12309141 162.3323609 207.92578125 169.88671875 C208.27301268 171.2795263 208.62192094 172.67191671 208.97236633 174.06391907 C209.91254996 177.81852925 210.82940862 181.57846903 211.74134064 185.34002686 C212.70213175 189.28889207 213.6818867 193.2330486 214.65966797 197.17773438 C215.87721079 202.09614349 217.09161815 207.0152762 218.29577637 211.9369812 C220.92485166 222.68102054 223.61390992 233.40815555 226.34765434 244.12601662 C227.54340618 248.82269857 228.72831418 253.52212509 229.91241932 258.22175503 C230.85458067 261.95914104 231.80190212 265.69503342 232.76211548 269.42782593 C233.66469324 272.93896106 234.54961888 276.45411736 235.42217064 279.97282982 C235.89203966 281.84953837 236.37947244 283.72182338 236.86775208 285.59382629 C239.14592954 294.88360206 241.38521186 306.54828162 237.3125 315.625 C235.30911363 318.88402993 232.87758139 321.47334317 230 324 C229.195625 324.721875 228.39125 325.44375 227.5625 326.1875 C222.34362996 329.87889588 217.1488999 330.2923259 210.91824722 330.26006222 C210.11740774 330.26386789 209.31656826 330.26767356 208.49146092 330.27159455 C205.80318136 330.28191554 203.11511275 330.27800322 200.42681885 330.27415466 C198.48185957 330.27860678 196.53690211 330.28392074 194.59194732 330.29002339 C189.24325276 330.30421681 183.89461628 330.30586642 178.54590559 330.30542648 C172.77888249 330.30707349 167.0118834 330.32013778 161.24487305 330.33161926 C148.6333892 330.35447675 136.02192217 330.36239057 123.41042042 330.36744571 C115.53701591 330.37070162 107.66361629 330.37722344 99.79021454 330.3844471 C77.99409752 330.4040134 56.19798559 330.42049893 34.40185928 330.42332363 C33.70479752 330.42341769 33.00773576 330.42351175 32.28955091 330.42360866 C29.46468995 330.42398714 26.63982898 330.42435114 23.81496801 330.42471164 C21.68881982 330.42498336 19.56267163 330.42526004 17.43652344 330.42553711 C16.38268217 330.42566914 16.38268217 330.42566914 15.30755119 330.42580384 C-6.76668495 330.42870921 -28.84083352 330.45080503 -50.91503906 330.48706055 C-75.71656171 330.5277945 -100.51802428 330.55146267 -125.31958222 330.55178314 C-138.45097386 330.55236809 -151.58225277 330.56088438 -164.71361542 330.58978081 C-175.89385733 330.61427043 -187.0739454 330.6215938 -198.25420687 330.60653328 C-203.95875062 330.59935477 -209.66299045 330.6002628 -215.36750031 330.62294388 C-220.59109255 330.64351394 -225.81414681 330.64095155 -231.03773311 330.62006903 C-232.92601392 330.61657043 -234.81433339 330.62149979 -236.70256349 330.63577347 C-248.19974536 330.71707314 -256.73204859 330.31413271 -265.875 322.5625 C-272.99512464 313.97646734 -273.75658785 306.78370022 -273 296 C-272.27728509 291.20519367 -271.15857131 286.55937721 -269.95825195 281.86376953 C-269.62993573 280.52678025 -269.30312367 279.18942087 -268.97767639 277.85173035 C-268.10086791 274.26742312 -267.20251928 270.68886116 -266.29906869 267.11118937 C-265.35067277 263.34258939 -264.42037924 259.56951633 -263.48735046 255.79708862 C-261.91991892 249.47164589 -260.33847412 243.14983697 -258.74829102 236.83007812 C-256.91562518 229.54596174 -255.10481522 222.25667831 -253.30565673 214.96421921 C-251.56545598 207.91267922 -249.81046045 200.8649028 -248.04857445 193.81875229 C-247.30279113 190.83528926 -246.56200356 187.85065349 -245.82531166 184.86493301 C-244.95656043 181.34706657 -244.07477211 177.83271255 -243.18318748 174.32056618 C-242.70682073 172.4316351 -242.24305026 170.53954105 -241.77978516 168.64735413 C-239.53791983 159.89710856 -236.9621119 150.99056195 -228.98046875 145.86328125 C-225.44703306 144.32306569 -221.81830442 144.09524115 -218 144 C-217.93683594 143.36835938 -217.87367188 142.73671875 -217.80859375 142.0859375 C-216.03766646 129.14884762 -209.76385482 117.66482385 -200 109 C-192.91415078 103.79141252 -185.95283229 100.56327647 -177 101 C-177.33 100.34 -177.66 99.68 -178 99 C-179.70473805 80.23377332 -176.24106091 63.6142366 -164 48.875 C-152.006898 36.17404206 -135.67016087 29.2277249 -118.3125 28.6875 C-110.73100341 28.79737676 -103.3885937 30.42476682 -96 32 C-95.56300781 30.85724609 -95.56300781 30.85724609 -95.1171875 29.69140625 C-88.85645368 13.92144464 -79.61708878 2.3503413 -64 -5 C-43.11071477 -12.79203497 -18.9272976 -13.0681645 0 0 Z " fill="#3A7D44" transform="translate(273,96)"/>
<path d="M0 0 C4.86370298 3.91136953 9.38753916 7.88234714 13 13 C13.73605469 12.72285156 14.47210938 12.44570312 15.23046875 12.16015625 C16.69419922 11.61681641 16.69419922 11.61681641 18.1875 11.0625 C19.15042969 10.70285156 20.11335938 10.34320313 21.10546875 9.97265625 C33.12348071 5.93421498 46.78080671 6.9185863 58.25 11.99609375 C70.14388937 17.96368755 78.2958066 27.47493126 83.09375 39.8125 C84.44502259 44.01645916 85.13291587 47.56686473 85 52 C85.70125 51.690625 86.4025 51.38125 87.125 51.0625 C96.81705724 47.48065276 107.5383349 48.04520307 117 52 C128.79042897 57.68277432 135.06022767 66.02144665 140 78 C141.60111913 83.0178614 142.27093373 87.71679219 142 93 C143.258125 93.20625 144.51625 93.4125 145.8125 93.625 C157.16962632 96.21021714 166.04747783 103.0686799 172.75 112.44921875 C178.5141116 121.62856648 183.71591845 132.90326397 183 144 C183.99 143.9175 184.98 143.835 186 143.75 C191.36326261 143.7933395 195.70340608 145.78158437 199.55900574 149.50593567 C204.52254362 155.64231524 206.12309141 162.3323609 207.92578125 169.88671875 C208.27301268 171.2795263 208.62192094 172.67191671 208.97236633 174.06391907 C209.91254996 177.81852925 210.82940862 181.57846903 211.74134064 185.34002686 C212.70213175 189.28889207 213.6818867 193.2330486 214.65966797 197.17773438 C215.87721079 202.09614349 217.09161815 207.0152762 218.29577637 211.9369812 C220.92485166 222.68102054 223.61390992 233.40815555 226.34765434 244.12601662 C227.54340618 248.82269857 228.72831418 253.52212509 229.91241932 258.22175503 C230.85458067 261.95914104 231.80190212 265.69503342 232.76211548 269.42782593 C233.66469324 272.93896106 234.54961888 276.45411736 235.42217064 279.97282982 C235.89203966 281.84953837 236.37947244 283.72182338 236.86775208 285.59382629 C239.14592954 294.88360206 241.38521186 306.54828162 237.3125 315.625 C235.30911363 318.88402993 232.87758139 321.47334317 230 324 C229.195625 324.721875 228.39125 325.44375 227.5625 326.1875 C222.34362996 329.87889588 217.1488999 330.2923259 210.91824722 330.26006222 C210.11740774 330.26386789 209.31656826 330.26767356 208.49146092 330.27159455 C205.80318136 330.28191554 203.11511275 330.27800322 200.42681885 330.27415466 C198.48185957 330.27860678 196.53690211 330.28392074 194.59194732 330.29002339 C189.24325276 330.30421681 183.89461628 330.30586642 178.54590559 330.30542648 C172.77888249 330.30707349 167.0118834 330.32013778 161.24487305 330.33161926 C148.6333892 330.35447675 136.02192217 330.36239057 123.41042042 330.36744571 C115.53701591 330.37070162 107.66361629 330.37722344 99.79021454 330.3844471 C77.99409752 330.4040134 56.19798559 330.42049893 34.40185928 330.42332363 C33.70479752 330.42341769 33.00773576 330.42351175 32.28955091 330.42360866 C29.46468995 330.42398714 26.63982898 330.42435114 23.81496801 330.42471164 C21.68881982 330.42498336 19.56267163 330.42526004 17.43652344 330.42553711 C16.38268217 330.42566914 16.38268217 330.42566914 15.30755119 330.42580384 C-6.76668495 330.42870921 -28.84083352 330.45080503 -50.91503906 330.48706055 C-75.71656171 330.5277945 -100.51802428 330.55146267 -125.31958222 330.55178314 C-138.45097386 330.55236809 -151.58225277 330.56088438 -164.71361542 330.58978081 C-175.89385733 330.61427043 -187.0739454 330.6215938 -198.25420687 330.60653328 C-203.95875062 330.59935477 -209.66299045 330.6002628 -215.36750031 330.62294388 C-220.59109255 330.64351394 -225.81414681 330.64095155 -231.03773311 330.62006903 C-232.92601392 330.61657043 -234.81433339 330.62149979 -236.70256349 330.63577347 C-248.19974536 330.71707314 -256.73204859 330.31413271 -265.875 322.5625 C-272.99512464 313.97646734 -273.75658785 306.78370022 -273 296 C-272.27728509 291.20519367 -271.15857131 286.55937721 -269.95825195 281.86376953 C-269.62993573 280.52678025 -269.30312367 279.18942087 -268.97767639 277.85173035 C-268.10086791 274.26742312 -267.20251928 270.68886116 -266.29906869 267.11118937 C-265.35067277 263.34258939 -264.42037924 259.56951633 -263.48735046 255.79708862 C-261.91991892 249.47164589 -260.33847412 243.14983697 -258.74829102 236.83007812 C-256.91562518 229.54596174 -255.10481522 222.25667831 -253.30565673 214.96421921 C-251.56545598 207.91267922 -249.81046045 200.8649028 -248.04857445 193.81875229 C-247.30279113 190.83528926 -246.56200356 187.85065349 -245.82531166 184.86493301 C-244.95656043 181.34706657 -244.07477211 177.83271255 -243.18318748 174.32056618 C-242.70682073 172.4316351 -242.24305026 170.53954105 -241.77978516 168.64735413 C-239.53791983 159.89710856 -236.9621119 150.99056195 -228.98046875 145.86328125 C-225.44703306 144.32306569 -221.81830442 144.09524115 -218 144 C-217.93683594 143.36835938 -217.87367188 142.73671875 -217.80859375 142.0859375 C-216.03766646 129.14884762 -209.76385482 117.66482385 -200 109 C-192.91415078 103.79141252 -185.95283229 100.56327647 -177 101 C-177.33 100.34 -177.66 99.68 -178 99 C-179.70473805 80.23377332 -176.24106091 63.6142366 -164 48.875 C-152.006898 36.17404206 -135.67016087 29.2277249 -118.3125 28.6875 C-110.73100341 28.79737676 -103.3885937 30.42476682 -96 32 C-95.56300781 30.85724609 -95.56300781 30.85724609 -95.1171875 29.69140625 C-88.85645368 13.92144464 -79.61708878 2.3503413 -64 -5 C-43.11071477 -12.79203497 -18.9272976 -13.0681645 0 0 Z M-226 161 C-227.25521802 163.85193311 -227.25521802 163.85193311 -227.95019531 167.02197266 C-228.40877426 168.83280586 -228.40877426 168.83280586 -228.87661743 170.68022156 C-229.19405759 172.00810379 -229.51121764 173.33605301 -229.828125 174.6640625 C-230.17683439 176.0669885 -230.52716698 177.46951188 -230.8789978 178.87165833 C-231.82573613 182.66248941 -232.75113927 186.45823615 -233.67267609 190.25526047 C-234.63988419 194.22535631 -235.62582538 198.19078565 -236.61083984 202.15649414 C-237.83425941 207.08578921 -239.05619254 212.01542302 -240.26998901 216.94709778 C-242.90319504 227.63850792 -245.59876886 238.31214857 -248.35192871 248.97328949 C-248.95526496 251.31006103 -249.55721313 253.64718563 -250.15869141 255.98443604 C-253.37645597 268.48562148 -253.37645597 268.48562148 -254.76184082 273.81011963 C-255.65697476 277.25172093 -256.54286455 280.69557775 -257.4221077 284.14127159 C-257.89728321 285.9931989 -258.38234691 287.84258038 -258.86776733 289.69184875 C-261.86333175 300.34786555 -261.86333175 300.34786555 -259.4375 310.75 C-259.14746094 311.28109375 -258.85742188 311.8121875 -258.55859375 312.359375 C-254.9848044 316.12125853 -251.19584338 317.84392854 -246.15822226 318.50139666 C-244.7386133 318.52229587 -243.31857884 318.52169308 -241.89893436 318.50336456 C-241.10816046 318.50917833 -240.31738656 318.51499209 -239.50264981 318.52098203 C-236.85440593 318.53557321 -234.20709018 318.52170117 -231.55885315 318.50793457 C-229.64047632 318.51254384 -227.72210301 318.51889693 -225.8037371 318.52684355 C-220.53316959 318.54355649 -215.26289142 318.53528146 -209.9923228 318.52289867 C-204.30782976 318.51385854 -198.62338692 318.52781282 -192.93890381 318.53881836 C-181.80311129 318.55661955 -170.66742652 318.55275634 -159.53162975 318.5411678 C-150.48198893 318.5321396 -141.43237833 318.53090682 -132.3827343 318.53526306 C-130.45180715 318.53618246 -130.45180715 318.53618246 -128.48187138 318.53712043 C-125.86688296 318.53839932 -123.25189454 318.53969617 -120.63690614 318.5410108 C-96.80616197 318.55209602 -72.97547906 318.54059363 -49.14474464 318.51964041 C-27.39260751 318.50066021 -5.64056405 318.50235456 16.11157227 318.52148438 C40.55161855 318.54290623 64.99160467 318.55132048 89.43166023 318.53903532 C92.03741299 318.53776111 94.64316576 318.53650363 97.24891853 318.53526306 C98.5310392 318.53464596 99.81315986 318.53402886 101.13413266 318.53339306 C110.17343865 318.52993795 119.21271141 318.53577201 128.25201225 318.54518127 C139.26722863 318.55639511 150.28233098 318.55337416 161.29753428 318.5320583 C166.9187525 318.52153938 172.53978054 318.51744054 178.16099739 318.53065491 C183.30606249 318.54256707 188.45076097 318.53603537 193.59579278 318.5147447 C195.45775563 318.51027366 197.31974941 318.51255613 199.18169241 318.52224785 C201.71259971 318.53441185 204.24225136 318.52193715 206.77309322 318.50336456 C207.49609681 318.51272923 208.2191004 318.52209389 208.96401319 318.53174233 C214.38447802 318.4522359 218.53151161 316.9508153 223 314 C226.44085259 310.21506215 227.34227508 307.53082857 227.23459816 302.45818901 C226.7360594 297.23435222 225.3122151 292.19064389 224.01831055 287.11743164 C223.7012616 285.84324875 223.38421265 284.56906586 223.05755615 283.25627136 C222.19196416 279.77886026 221.31473736 276.3044821 220.43513465 272.83059239 C219.51328301 269.1822297 218.60162896 265.53131929 217.68867493 261.88072205 C216.15400252 255.7503397 214.61223159 249.62177892 213.06567383 243.49438477 C211.28235482 236.42879386 209.50792558 229.36102064 207.73879975 222.2918635 C205.84931257 214.74181651 203.95443302 207.19313153 202.05738091 199.6449821 C201.51384359 197.48111542 200.97117577 195.31703214 200.42865562 193.15291023 C199.41340999 189.10482391 198.39199714 185.0583179 197.36987305 181.01196289 C197.0720845 179.82259125 196.77429596 178.6332196 196.46748352 177.4078064 C195.67053174 174.26435983 194.84550485 171.13069588 194 168 C193.76906961 167.10958952 193.53813923 166.21917904 193.30021095 165.30178642 C193.06976271 164.50070017 192.83931446 163.69961391 192.60188293 162.87425232 C192.41186109 162.19115714 192.22183924 161.50806196 192.02605915 160.80426693 C190.50643811 158.13209935 188.74624377 157.34998922 186 156 C182.69837588 155.54985377 182.69837588 155.54985377 179.04245758 155.61688995 C178.35101825 155.61193044 177.65957892 155.60697092 176.94718689 155.60186112 C174.62496474 155.58888408 172.3033156 155.59729605 169.9810791 155.60559082 C168.30152938 155.60070292 166.62198303 155.59451358 164.94244242 155.58713293 C160.32290131 155.57069777 155.70353047 155.57305858 151.08397031 155.5785079 C146.10366284 155.58117365 141.12340121 155.56665496 136.14311218 155.55441284 C126.38503874 155.53333833 116.62702468 155.52881911 106.86893117 155.53060073 C98.9400233 155.53190719 91.01113399 155.52811016 83.08222961 155.52067566 C80.80031856 155.51857652 78.51840751 155.51647892 76.23649645 155.51438284 C74.53297725 155.51281755 74.53297725 155.51281755 72.79504353 155.51122063 C51.3074921 155.49231056 29.8199748 155.49337099 8.3324185 155.50018996 C-11.33834606 155.50576764 -31.00898048 155.48493175 -50.67971462 155.45182949 C-70.8653198 155.4181237 -91.05086258 155.40292017 -111.23649645 155.40754652 C-122.57419088 155.40979415 -133.91176498 155.40450505 -145.24943542 155.37965393 C-154.90007126 155.35868112 -164.55052075 155.35500891 -174.20116413 155.37395352 C-179.12739133 155.3831357 -184.05327073 155.38417865 -188.97947121 155.36359787 C-193.48614981 155.34497751 -197.99219355 155.34929012 -202.49884731 155.37214369 C-204.13202048 155.37635214 -205.7652415 155.37205458 -207.39836425 155.35854775 C-209.61383631 155.34146762 -211.82707144 155.35501647 -214.04245758 155.37638092 C-215.89009823 155.37597234 -215.89009823 155.37597234 -217.77506495 155.37555552 C-221.91527479 156.17722475 -223.3803473 157.76705884 -226 161 Z " fill="#9C6615" transform="translate(273,96)"/>
<path d="M0 0 C4.86370298 3.91136953 9.38753916 7.88234714 13 13 C13.73605469 12.72285156 14.47210938 12.44570312 15.23046875 12.16015625 C16.69419922 11.61681641 16.69419922 11.61681641 18.1875 11.0625 C19.15042969 10.70285156 20.11335938 10.34320313 21.10546875 9.97265625 C33.12348071 5.93421498 46.78080671 6.9185863 58.25 11.99609375 C70.14388937 17.96368755 78.2958066 27.47493126 83.09375 39.8125 C84.44502259 44.01645916 85.13291587 47.56686473 85 52 C85.70125 51.690625 86.4025 51.38125 87.125 51.0625 C96.81705724 47.48065276 107.5383349 48.04520307 117 52 C128.79042897 57.68277432 135.06022767 66.02144665 140 78 C141.60111913 83.0178614 142.27093373 87.71679219 142 93 C143.258125 93.20625 144.51625 93.4125 145.8125 93.625 C157.16962632 96.21021714 166.04747783 103.0686799 172.75 112.44921875 C178.5141116 121.62856648 183.71591845 132.90326397 183 144 C183.99 143.9175 184.98 143.835 186 143.75 C191.36326261 143.7933395 195.70340608 145.78158437 199.55900574 149.50593567 C204.52254362 155.64231524 206.12309141 162.3323609 207.92578125 169.88671875 C208.27301268 171.2795263 208.62192094 172.67191671 208.97236633 174.06391907 C209.91254996 177.81852925 210.82940862 181.57846903 211.74134064 185.34002686 C212.70213175 189.28889207 213.6818867 193.2330486 214.65966797 197.17773438 C215.87721079 202.09614349 217.09161815 207.0152762 218.29577637 211.9369812 C220.92485166 222.68102054 223.61390992 233.40815555 226.34765434 244.12601662 C227.54340618 248.82269857 228.72831418 253.52212509 229.91241932 258.22175503 C230.85458067 261.95914104 231.80190212 265.69503342 232.76211548 269.42782593 C233.66469324 272.93896106 234.54961888 276.45411736 235.42217064 279.97282982 C235.89203966 281.84953837 236.37947244 283.72182338 236.86775208 285.59382629 C239.14592954 294.88360206 241.38521186 306.54828162 237.3125 315.625 C235.30911363 318.88402993 232.87758139 321.47334317 230 324 C229.195625 324.721875 228.39125 325.44375 227.5625 326.1875 C222.34362996 329.87889588 217.1488999 330.2923259 210.91824722 330.26006222 C210.11740774 330.26386789 209.31656826 330.26767356 208.49146092 330.27159455 C205.80318136 330.28191554 203.11511275 330.27800322 200.42681885 330.27415466 C198.48185957 330.27860678 196.53690211 330.28392074 194.59194732 330.29002339 C189.24325276 330.30421681 183.89461628 330.30586642 178.54590559 330.30542648 C172.77888249 330.30707349 167.0118834 330.32013778 161.24487305 330.33161926 C148.6333892 330.35447675 136.02192217 330.36239057 123.41042042 330.36744571 C115.53701591 330.37070162 107.66361629 330.37722344 99.79021454 330.3844471 C77.99409752 330.4040134 56.19798559 330.42049893 34.40185928 330.42332363 C33.70479752 330.42341769 33.00773576 330.42351175 32.28955091 330.42360866 C29.46468995 330.42398714 26.63982898 330.42435114 23.81496801 330.42471164 C21.68881982 330.42498336 19.56267163 330.42526004 17.43652344 330.42553711 C16.38268217 330.42566914 16.38268217 330.42566914 15.30755119 330.42580384 C-6.76668495 330.42870921 -28.84083352 330.45080503 -50.91503906 330.48706055 C-75.71656171 330.5277945 -100.51802428 330.55146267 -125.31958222 330.55178314 C-138.45097386 330.55236809 -151.58225277 330.56088438 -164.71361542 330.58978081 C-175.89385733 330.61427043 -187.0739454 330.6215938 -198.25420687 330.60653328 C-203.95875062 330.59935477 -209.66299045 330.6002628 -215.36750031 330.62294388 C-220.59109255 330.64351394 -225.81414681 330.64095155 -231.03773311 330.62006903 C-232.92601392 330.61657043 -234.81433339 330.62149979 -236.70256349 330.63577347 C-248.19974536 330.71707314 -256.73204859 330.31413271 -265.875 322.5625 C-272.99512464 313.97646734 -273.75658785 306.78370022 -273 296 C-272.27728509 291.20519367 -271.15857131 286.55937721 -269.95825195 281.86376953 C-269.62993573 280.52678025 -269.30312367 279.18942087 -268.97767639 277.85173035 C-268.10086791 274.26742312 -267.20251928 270.68886116 -266.29906869 267.11118937 C-265.35067277 263.34258939 -264.42037924 259.56951633 -263.48735046 255.79708862 C-261.91991892 249.47164589 -260.33847412 243.14983697 -258.74829102 236.83007812 C-256.91562518 229.54596174 -255.10481522 222.25667831 -253.30565673 214.96421921 C-251.56545598 207.91267922 -249.81046045 200.8649028 -248.04857445 193.81875229 C-247.30279113 190.83528926 -246.56200356 187.85065349 -245.82531166 184.86493301 C-244.95656043 181.34706657 -244.07477211 177.83271255 -243.18318748 174.32056618 C-242.70682073 172.4316351 -242.24305026 170.53954105 -241.77978516 168.64735413 C-239.53791983 159.89710856 -236.9621119 150.99056195 -228.98046875 145.86328125 C-225.44703306 144.32306569 -221.81830442 144.09524115 -218 144 C-217.93683594 143.36835938 -217.87367188 142.73671875 -217.80859375 142.0859375 C-216.03766646 129.14884762 -209.76385482 117.66482385 -200 109 C-192.91415078 103.79141252 -185.95283229 100.56327647 -177 101 C-177.33 100.34 -177.66 99.68 -178 99 C-179.70473805 80.23377332 -176.24106091 63.6142366 -164 48.875 C-152.006898 36.17404206 -135.67016087 29.2277249 -118.3125 28.6875 C-110.73100341 28.79737676 -103.3885937 30.42476682 -96 32 C-95.56300781 30.85724609 -95.56300781 30.85724609 -95.1171875 29.69140625 C-88.85645368 13.92144464 -79.61708878 2.3503413 -64 -5 C-43.11071477 -12.79203497 -18.9272976 -13.0681645 0 0 Z M-74.875 17.8125 C-80.6956529 25.08482652 -83.44858651 32.2095149 -84.54296875 41.43359375 C-85 44 -85 44 -87 47 C-92.54020514 47.80794658 -96.4384031 46.24908514 -101.47265625 43.97265625 C-111.33041459 40.17886672 -125.09835386 40.48433387 -134.9375 44 C-149.25962094 50.40155406 -157.95724587 59.73036375 -164 74 C-165.74348276 79.08319466 -166.31096091 83.72334007 -166.25 89.0625 C-166.25773437 89.74376953 -166.26546875 90.42503906 -166.2734375 91.12695312 C-166.2566594 95.49345276 -165.44379808 98.91302827 -164 103 C-163.8046875 105.5546875 -163.8046875 105.5546875 -163.875 107.875 C-163.89304688 108.65617187 -163.91109375 109.43734375 -163.9296875 110.2421875 C-163.95289063 110.82226562 -163.97609375 111.40234375 -164 112 C-165.05058594 112.02578125 -166.10117188 112.0515625 -167.18359375 112.078125 C-178.46530025 112.47873851 -186.60130206 114.01206179 -195.14453125 121.94140625 C-200.68303524 128.08623068 -205 135.6198469 -205 144 C-80.92 144 43.16 144 171 144 C168.66099424 131.13546833 164.96891222 119.04886051 154 111 C147.31519322 106.82433638 141.02312686 104.37207901 133.1796875 103.51953125 C131 103 131 103 129 100 C128.93474069 97.79253282 128.9687623 95.58144134 129.0625 93.375 C129.16055901 83.83385827 127.26536779 77.43051793 121.0546875 70.0859375 C115.11372705 64.05462024 109.600443 61.44157473 101.0625 61.3125 C94.81094681 61.39960161 89.85404549 62.7868109 84.4296875 65.90625 C81.4255824 67.25858027 79.26043716 67.32514055 76 67 C73.14879262 64.14879262 73.73012624 62.04516726 73.625 58.0625 C73.03367337 45.8835017 69.11302875 36.51433695 60.05078125 28.21484375 C50.52483323 20.59782834 40.77544252 19.97327422 29 21 C23.86687315 21.89894861 19.6585099 23.50183799 15.25 26.25 C12 28 12 28 8.9375 28.375 C4.8272364 26.45104683 3.82487398 23.59335955 1.6796875 19.703125 C-3.32837584 11.64363701 -11.22844583 7.09662443 -20 4 C-39.30667233 -0.43693712 -60.94303947 2.94974038 -74.875 17.8125 Z M-226 161 C-227.25521802 163.85193311 -227.25521802 163.85193311 -227.95019531 167.02197266 C-228.40877426 168.83280586 -228.40877426 168.83280586 -228.87661743 170.68022156 C-229.19405759 172.00810379 -229.51121764 173.33605301 -229.828125 174.6640625 C-230.17683439 176.0669885 -230.52716698 177.46951188 -230.8789978 178.87165833 C-231.82573613 182.66248941 -232.75113927 186.45823615 -233.67267609 190.25526047 C-234.63988419 194.22535631 -235.62582538 198.19078565 -236.61083984 202.15649414 C-237.83425941 207.08578921 -239.05619254 212.01542302 -240.26998901 216.94709778 C-242.90319504 227.63850792 -245.59876886 238.31214857 -248.35192871 248.97328949 C-248.95526496 251.31006103 -249.55721313 253.64718563 -250.15869141 255.98443604 C-253.37645597 268.48562148 -253.37645597 268.48562148 -254.76184082 273.81011963 C-255.65697476 277.25172093 -256.54286455 280.69557775 -257.4221077 284.14127159 C-257.89728321 285.9931989 -258.38234691 287.84258038 -258.86776733 289.69184875 C-261.86333175 300.34786555 -261.86333175 300.34786555 -259.4375 310.75 C-259.14746094 311.28109375 -258.85742188 311.8121875 -258.55859375 312.359375 C-254.9848044 316.12125853 -251.19584338 317.84392854 -246.15822226 318.50139666 C-244.7386133 318.52229587 -243.31857884 318.52169308 -241.89893436 318.50336456 C-241.10816046 318.50917833 -240.31738656 318.51499209 -239.50264981 318.52098203 C-236.85440593 318.53557321 -234.20709018 318.52170117 -231.55885315 318.50793457 C-229.64047632 318.51254384 -227.72210301 318.51889693 -225.8037371 318.52684355 C-220.53316959 318.54355649 -215.26289142 318.53528146 -209.9923228 318.52289867 C-204.30782976 318.51385854 -198.62338692 318.52781282 -192.93890381 318.53881836 C-181.80311129 318.55661955 -170.66742652 318.55275634 -159.53162975 318.5411678 C-150.48198893 318.5321396 -141.43237833 318.53090682 -132.3827343 318.53526306 C-130.45180715 318.53618246 -130.45180715 318.53618246 -128.48187138 318.53712043 C-125.86688296 318.53839932 -123.25189454 318.53969617 -120.63690614 318.5410108 C-96.80616197 318.55209602 -72.97547906 318.54059363 -49.14474464 318.51964041 C-27.39260751 318.50066021 -5.64056405 318.50235456 16.11157227 318.52148438 C40.55161855 318.54290623 64.99160467 318.55132048 89.43166023 318.53903532 C92.03741299 318.53776111 94.64316576 318.53650363 97.24891853 318.53526306 C98.5310392 318.53464596 99.81315986 318.53402886 101.13413266 318.53339306 C110.17343865 318.52993795 119.21271141 318.53577201 128.25201225 318.54518127 C139.26722863 318.55639511 150.28233098 318.55337416 161.29753428 318.5320583 C166.9187525 318.52153938 172.53978054 318.51744054 178.16099739 318.53065491 C183.30606249 318.54256707 188.45076097 318.53603537 193.59579278 318.5147447 C195.45775563 318.51027366 197.31974941 318.51255613 199.18169241 318.52224785 C201.71259971 318.53441185 204.24225136 318.52193715 206.77309322 318.50336456 C207.49609681 318.51272923 208.2191004 318.52209389 208.96401319 318.53174233 C214.38447802 318.4522359 218.53151161 316.9508153 223 314 C226.44085259 310.21506215 227.34227508 307.53082857 227.23459816 302.45818901 C226.7360594 297.23435222 225.3122151 292.19064389 224.01831055 287.11743164 C223.7012616 285.84324875 223.38421265 284.56906586 223.05755615 283.25627136 C222.19196416 279.77886026 221.31473736 276.3044821 220.43513465 272.83059239 C219.51328301 269.1822297 218.60162896 265.53131929 217.68867493 261.88072205 C216.15400252 255.7503397 214.61223159 249.62177892 213.06567383 243.49438477 C211.28235482 236.42879386 209.50792558 229.36102064 207.73879975 222.2918635 C205.84931257 214.74181651 203.95443302 207.19313153 202.05738091 199.6449821 C201.51384359 197.48111542 200.97117577 195.31703214 200.42865562 193.15291023 C199.41340999 189.10482391 198.39199714 185.0583179 197.36987305 181.01196289 C197.0720845 179.82259125 196.77429596 178.6332196 196.46748352 177.4078064 C195.67053174 174.26435983 194.84550485 171.13069588 194 168 C193.76906961 167.10958952 193.53813923 166.21917904 193.30021095 165.30178642 C193.06976271 164.50070017 192.83931446 163.69961391 192.60188293 162.87425232 C192.41186109 162.19115714 192.22183924 161.50806196 192.02605915 160.80426693 C190.50643811 158.13209935 188.74624377 157.34998922 186 156 C182.69837588 155.54985377 182.69837588 155.54985377 179.04245758 155.61688995 C178.35101825 155.61193044 177.65957892 155.60697092 176.94718689 155.60186112 C174.62496474 155.58888408 172.3033156 155.59729605 169.9810791 155.60559082 C168.30152938 155.60070292 166.62198303 155.59451358 164.94244242 155.58713293 C160.32290131 155.57069777 155.70353047 155.57305858 151.08397031 155.5785079 C146.10366284 155.58117365 141.12340121 155.56665496 136.14311218 155.55441284 C126.38503874 155.53333833 116.62702468 155.52881911 106.86893117 155.53060073 C98.9400233 155.53190719 91.01113399 155.52811016 83.08222961 155.52067566 C80.80031856 155.51857652 78.51840751 155.51647892 76.23649645 155.51438284 C74.53297725 155.51281755 74.53297725 155.51281755 72.79504353 155.51122063 C51.3074921 155.49231056 29.8199748 155.49337099 8.3324185 155.50018996 C-11.33834606 155.50576764 -31.00898048 155.48493175 -50.67971462 155.45182949 C-70.8653198 155.4181237 -91.05086258 155.40292017 -111.23649645 155.40754652 C-122.57419088 155.40979415 -133.91176498 155.40450505 -145.24943542 155.37965393 C-154.90007126 155.35868112 -164.55052075 155.35500891 -174.20116413 155.37395352 C-179.12739133 155.3831357 -184.05327073 155.38417865 -188.97947121 155.36359787 C-193.48614981 155.34497751 -197.99219355 155.34929012 -202.49884731 155.37214369 C-204.13202048 155.37635214 -205.7652415 155.37205458 -207.39836425 155.35854775 C-209.61383631 155.34146762 -211.82707144 155.35501647 -214.04245758 155.37638092 C-215.89009823 155.37597234 -215.89009823 155.37597234 -217.77506495 155.37555552 C-221.91527479 156.17722475 -223.3803473 157.76705884 -226 161 Z " fill="#" transform="translate(273,96)"/>
<path d="M0 0 C3.89569135 -0.08732726 7.79112982 -0.14050185 11.6875 -0.1875 C12.79029297 -0.21263672 13.89308594 -0.23777344 15.02929688 -0.26367188 C16.09599609 -0.27333984 17.16269531 -0.28300781 18.26171875 -0.29296875 C19.24100342 -0.3086792 20.22028809 -0.32438965 21.22924805 -0.34057617 C24.737113 0.09060469 26.3234467 0.65061528 29 3 C32.08905543 9.90683253 33.53999117 17.70338888 35.36987305 25.01196289 C35.69217896 26.2878981 36.01448486 27.56383331 36.34655762 28.87843323 C37.22381418 32.35266013 38.0965195 35.82801371 38.96784186 39.30373311 C39.51342595 41.4794644 40.05989174 43.65497238 40.60663795 45.83041191 C42.51676893 53.43130516 44.42277302 61.0332213 46.32543945 68.63598633 C48.09494285 75.7061171 49.87418296 82.77375013 51.65779275 89.840334 C53.19318956 95.92554465 54.72130986 102.0125533 56.24392349 108.10097498 C57.15153753 111.72959489 58.06211795 115.35740584 58.98023033 118.98338509 C60.00343426 123.0254856 61.01150929 127.07121437 62.01831055 131.11743164 C62.32217178 132.30882751 62.62603302 133.50022339 62.93910217 134.72772217 C66.33834377 148.51537222 66.33834377 148.51537222 64.15234375 154.20703125 C63.75144531 154.73683594 63.35054688 155.26664063 62.9375 155.8125 C62.55464844 156.35519531 62.17179687 156.89789063 61.77734375 157.45703125 C56.79915661 161.77875415 51.23978988 162.43806388 44.87658787 162.36914349 C44.08341719 162.37260502 43.29024652 162.37606655 42.47304037 162.37963298 C39.8168422 162.3875699 37.16119025 162.37411843 34.50502014 162.36076355 C32.58094529 162.36207192 30.65687095 162.36469893 28.73279947 162.36853105 C23.44681464 162.37524167 18.16101204 162.3632353 12.87505043 162.34819686 C7.17437043 162.33524915 1.47370082 162.33962507 -4.22698975 162.34190369 C-14.1034228 162.34347722 -23.97979642 162.33405962 -33.85621452 162.31719017 C-48.13587273 162.29281562 -62.41550218 162.28499648 -76.69517893 162.2812262 C-99.86263963 162.27465929 -123.03006655 162.25471739 -146.19750977 162.22631836 C-168.70336747 162.19876216 -191.2092167 162.17751274 -213.71508789 162.16479492 C-214.40890321 162.16440034 -215.10271852 162.16400576 -215.81755854 162.16359923 C-222.78518211 162.15964365 -229.75280574 162.15581621 -236.72042942 162.15208265 C-295.146974 162.12076317 -353.57348665 162.06782776 -412 162 C-412 161.67 -412 161.34 -412 161 C-265.48 160.67 -118.96 160.34 32 160 C37.81088156 148.37823688 35.99660529 141.64701008 32.91064453 129.60498047 C32.57801177 128.27535264 32.24631149 126.94549123 31.91546631 125.61541748 C31.01991046 122.02637699 30.11135497 118.44074507 29.20027399 114.85561895 C28.24612288 111.09183604 27.3039075 107.32506678 26.36032104 103.55862427 C24.7749589 97.23735932 23.18199453 90.91805299 21.58349609 84.60009766 C19.33272864 75.70407146 17.09526846 66.80473945 14.86069322 57.90463424 C11.86279203 45.96705845 8.86084482 34.0304792 5.84386444 22.09770966 C5.36406238 20.19921468 4.88527607 18.30046308 4.40652466 16.40170288 C3.0160926 10.90920538 1.60399609 5.43424786 0 0 Z " fill="#3A7D44" transform="translate(435,252)"/>
<path d="M0 0 C0.92941406 -0.01611328 1.85882813 -0.03222656 2.81640625 -0.04882812 C14.39420604 -0.0569019 24.91812576 3.43230336 33.42578125 11.4921875 C36.48234106 14.81137677 38.84151207 17.70191062 40.75 21.8125 C41.89819973 24.58593648 41.89819973 24.58593648 44.83203125 25.1484375 C48.84610702 25.34842704 50.70587731 24.38720871 54.1875 22.4375 C63.51198542 17.27723136 74.72892332 16.81032142 85.14453125 18.92578125 C94.57598327 22.29733969 100.98339565 29.24667602 105.93359375 37.72265625 C109.16156818 44.73953182 109.48080655 51.47330079 109.78125 59.08203125 C109.79201624 62.39839446 109.79201624 62.39839446 112.125 64.3125 C116.60722979 64.75948136 119.14718175 64.02817823 123 61.8125 C130.83837335 58.08045048 139.87914811 57.49557734 148.125 60.3515625 C155.47661545 64.36357215 160.94479795 70.73461248 164.0625 78.5 C165.58617361 83.68599754 165.26259014 88.91999367 165.03515625 94.2734375 C164.86167321 97.49153652 164.86167321 97.49153652 167.125 100.3125 C169.37296773 100.89644331 169.37296773 100.89644331 172 101.125 C182.40548097 102.80242354 191.80519714 107.76377743 198.125 116.3125 C203.00617821 124.32536483 205.98174544 131.91240693 207.125 141.3125 C201.845 141.3125 196.565 141.3125 191.125 141.3125 C190.444375 139.8275 189.76375 138.3425 189.0625 136.8125 C183.44128762 125.69568892 175.44965688 119.53789625 163.8125 115.3125 C159.42707836 113.60514589 156.1102333 111.74589096 154.125 107.3125 C153.54146611 104.39915301 153.15955036 101.48270538 152.7578125 98.5390625 C151.02127572 89.6848688 146.49321488 82.87803521 139.76171875 77.03125 C131.54451772 71.67485229 125.12377888 70.85319357 115.375 71.3125 C104.168839 71.83311143 104.168839 71.83311143 100.0078125 69.7578125 C97.63429479 66.67519406 96.77414923 63.93758027 95.75 60.1875 C92.67398216 49.94979908 87.16983962 41.32708878 78.125 35.3125 C66.76457403 29.54996509 56.94410235 27.82508243 44.6875 31.3125 C42.17058199 31.99593625 39.64944275 32.65680058 37.125 33.3125 C36.28453125 33.539375 35.4440625 33.76625 34.578125 34 C31.93898549 34.38527584 30.61216702 34.33276394 28.125 33.3125 C25.56556573 31.01415744 23.24374641 28.63345408 20.92822266 26.09619141 C11.06688453 15.53692603 -2.62306295 11.96485001 -16.71484375 11.34765625 C-25.09954395 11.16322779 -32.46045527 11.55465455 -38.875 17.3125 C-35.54087531 9.56066009 -26.36887731 5.31876474 -18.875 2.3125 C-12.5009701 0.34546067 -6.64882774 -0.02286392 0 0 Z " fill="#D1AC00" transform="translate(236.875,98.6875)"/>
<path d="M0 0 C8.99362404 6.33012769 15.90551888 15.00662574 18.84375 25.6796875 C19.14040213 28.51872194 19.16878357 31.32704737 19.15625 34.1796875 C19.17236328 34.91316406 19.18847656 35.64664063 19.20507812 36.40234375 C19.20938638 41.21897735 18.56572516 44.55224804 15.84375 48.6796875 C12.2262678 52.1182789 10.00900595 53.18149048 5.03125 53.19726562 C3.8865625 53.20987427 2.741875 53.22248291 1.5625 53.23547363 C0.3353125 53.22737671 -0.891875 53.21927979 -2.15625 53.2109375 C-3.4246875 53.2147644 -4.693125 53.21859131 -6 53.22253418 C-8.68024486 53.22525465 -11.35902705 53.21990436 -14.0390625 53.20117188 C-17.46576508 53.17838145 -20.89121444 53.19151063 -24.31787109 53.21546173 C-27.59737502 53.23343172 -30.87672969 53.22083189 -34.15625 53.2109375 C-35.99703125 53.22308289 -35.99703125 53.22308289 -37.875 53.23547363 C-39.0196875 53.22286499 -40.164375 53.21025635 -41.34375 53.19726562 C-42.34792969 53.19408325 -43.35210937 53.19090088 -44.38671875 53.18762207 C-47.93345968 52.53714653 -49.58678301 51.16760402 -52.15625 48.6796875 C-56.3296827 40.908468 -56.56244906 31.8857489 -54.27734375 23.42578125 C-49.56032593 11.23625996 -41.56939239 2.40210574 -29.8359375 -3.484375 C-19.38884266 -7.49096693 -9.36311321 -5.73321063 0 0 Z " fill="#FDE891" transform="translate(274.15625,333.3203125)"/>
<path d="M0 0 C13.07580075 7.74249242 22.82912094 18.92642492 27.43310547 33.60839844 C28.40686379 37.71646757 28.48880598 41.73121727 28.4375 45.9375 C28.42920166 46.81631836 28.42090332 47.69513672 28.41235352 48.60058594 C28.15659918 58.40480562 25.4816157 64.8274903 19.171875 72.30859375 C11.99868194 77.89491137 3.83174874 77.45368039 -4.84375 77.43359375 C-6.1807888 77.4381644 -7.51782527 77.44347258 -8.8548584 77.44947815 C-11.6453613 77.45837032 -14.4355774 77.45603039 -17.22607422 77.44604492 C-20.78349317 77.4345487 -24.33992037 77.45479497 -27.89720917 77.48396206 C-30.65466485 77.50239767 -33.41188591 77.50201733 -36.16938782 77.49632454 C-38.11242891 77.49609884 -40.05544824 77.51292104 -41.99841309 77.53013611 C-50.77656177 77.46121694 -56.74630337 76.32095691 -63.25 70.0625 C-70.03714066 61.34677292 -71.16904507 49.64069593 -70 39 C-67.04429251 24.45393393 -59.17922686 12.10133339 -47.25 3.25 C-32.05266921 -6.64325479 -16.36183128 -8.64933025 0 0 Z M-48.078125 20.1015625 C-55.41145668 28.86967646 -58.86844263 38.28543882 -58.42578125 49.71875 C-57.73046797 55.07712754 -56.33319798 59.8556833 -52.27609253 63.58435059 C-49.43427978 65.35185806 -47.65053923 65.39194995 -44.31689453 65.41992188 C-43.17535919 65.43583374 -42.03382385 65.45174561 -40.85769653 65.46813965 C-39.01387894 65.46844177 -39.01387894 65.46844177 -37.1328125 65.46875 C-35.23159134 65.48017029 -35.23159134 65.48017029 -33.29196167 65.49182129 C-30.61017544 65.5026297 -27.92927033 65.50684077 -25.24755859 65.50097656 C-21.82191484 65.49508709 -18.39769168 65.52564204 -14.97232246 65.56609344 C-11.69251304 65.59826417 -8.4127553 65.59385409 -5.1328125 65.59375 C-3.90764923 65.61014526 -2.68248596 65.62654053 -1.42019653 65.64343262 C5.64399706 65.72434492 5.64399706 65.72434492 11.73632812 62.60668945 C17.38328836 56.1040369 16.62488579 48.19533349 16.19091797 40.02197266 C15.16094154 29.11370571 7.1212345 20.25801373 -0.94921875 13.50390625 C-16.9662273 1.75809998 -34.81321783 6.68705111 -48.078125 20.1015625 Z " fill="#D1AC00" transform="translate(277,321)"/>
<path d="M0 0 C5.53169312 3.77160894 8.71166717 8.54544015 10.75 14.875 C11.8519693 23.1020311 9.68845834 30.41806818 5 37.1875 C1.39882327 41.60953319 -1.9781888 44.37564567 -7.70703125 45.25 C-13.3914027 45.52271347 -16.85676538 44.7452305 -21.25 40.875 C-26.06493855 35.7849221 -28.38413574 30.61106188 -28.8125 23.6875 C-28.58439632 16.16007847 -25.42244313 9.39547487 -20.3984375 3.8203125 C-14.3404952 -1.56738937 -7.68928619 -2.66167599 0 0 Z " fill="#D1AC00" transform="translate(287.25,269.125)"/>
<path d="M0 0 C7.20164464 3.29961285 11.12619012 8.71487387 14.07421875 15.8984375 C16.20403171 22.94846009 15.07352333 29.39831215 12.15234375 36.046875 C9.67011294 40.22709559 6.1291947 43.15415265 1.8046875 45.31640625 C-4.37778008 46.12081653 -9.23924523 45.66339143 -14.375 42.00390625 C-20.59112968 36.24131392 -24.12238339 28.98194257 -24.6328125 20.56640625 C-24.48602233 14.07828055 -22.04884743 8.35831634 -17.59765625 3.61328125 C-12.18340111 -1.01610644 -6.87138999 -2.1396677 0 0 Z " fill="#D1AC00" transform="translate(238.1953125,268.68359375)"/>
<path d="M0 0 C6.77270996 3.74956025 12.5566808 9.56471643 14.875 17.0625 C15.53860562 23.46586329 15.80514691 29.69129922 11.875 35.0625 C7.53316598 39.51379202 3.76055564 41.16533173 -2.375 41.375 C-9.53168641 41.24615622 -14.22379131 38.14534298 -19.375 33.375 C-24.27857488 28.16253852 -27.22777813 22.72447268 -27.625 15.5 C-27.3105151 9.86875473 -25.55220396 5.36666598 -21.4296875 1.453125 C-14.59101384 -3.47514994 -7.55630816 -3.32616632 0 0 Z " fill="#D1AC00" transform="translate(204.125,299.9375)"/>
<path d="M0 0 C4.78342561 3.39900103 7.01367291 7.44475994 8.09765625 13.1640625 C8.59994536 20.45369424 5.47132457 26.38033729 1.11328125 32.046875 C-3.49191671 37.07072733 -8.8723295 40.35415702 -15.67578125 41.34375 C-20.59733074 41.54226628 -24.16291851 40.82926011 -28.3125 38 C-32.87454556 33.47504424 -34.46961572 29.69961191 -34.625 23.3125 C-34.53190479 15.58559734 -32.27902835 10.94336386 -27.1875 5.25 C-19.87138053 -1.58150472 -9.15872785 -4.99413071 0 0 Z " fill="#D1AC00" transform="translate(327.3125,300)"/>
<path d="M0 0 C3.2127329 2.16716894 6.24824101 4.49648203 8 8 C8.16796875 9.875 8.16796875 9.875 8.1875 12 C8.20167969 12.70125 8.21585938 13.4025 8.23046875 14.125 C8 16 8 16 6 18 C2.23977865 18.51275746 0.28811999 18.14406 -3.125 16.4375 C-6.42902549 13.636261 -8.63158263 11.1396777 -10 7 C-9.875 3.125 -9.875 3.125 -9 0 C-5.72766691 -1.63616654 -3.49970684 -0.86058365 0 0 Z " fill="#F6E28D" transform="translate(199,311)"/>
<path d="M0 0 C1.05630956 4.31326403 1.19425429 6.5224582 -0.5 10.6875 C-3.01553977 14.5522047 -5.80310609 16.15925706 -10 18 C-12.8125 18.375 -12.8125 18.375 -15 18 C-17 16 -17 16 -17.5 12.3125 C-17.40294449 7.87221023 -15.63828847 5.63248495 -12.703125 2.4453125 C-8.34732575 -1.25112264 -5.57033182 -1.07121766 0 0 Z " fill="#F7E38D" transform="translate(322,311)"/>
<path d="M0 0 C1.62890625 1.16015625 1.62890625 1.16015625 3 3 C3.82526283 8.15231657 4.0758139 14.05430461 1.375 18.6875 C-1.43508897 21.42363926 -3.13339194 21.82424509 -7 22 C-9.52758519 18.76153148 -10.92285844 16.61713251 -11.4375 12.5 C-10.86549354 7.92394833 -9.33115995 4.81521811 -6.625 1.125 C-4.28679332 -0.49375847 -2.77797533 -0.4166963 0 0 Z " fill="#F6E28D" transform="translate(282,280)"/>
<path d="M0 0 C3.78111568 1.23465002 4.93695632 2.69359871 7.0625 6 C8.26893566 9.61930698 8.38518559 12.19231005 8.0625 16 C6.0625 19.4375 6.0625 19.4375 4.0625 22 C0.19589194 21.82424509 -1.50241103 21.42363926 -4.3125 18.6875 C-7.0133139 14.05430461 -6.76276283 8.15231657 -5.9375 3 C-3.95895871 0.25649943 -3.46928946 0 0 0 Z " fill="#F7E38D" transform="translate(232.9375,280)"/>
<path d="M0 0 C2 3 2 3 1.8125 6.0625 C1 9 1 9 -2 11 C-4.83079592 11.35384949 -6.36830089 11.3920891 -8.8125 9.875 C-10.55198782 7.12844028 -10.39769128 5.18153026 -10 2 C-7.65569181 -2.27491494 -4.20074737 -1.06928115 0 0 Z " fill="#140E0E" transform="translate(362,200)"/>
<path d="M0 0 C1.875 1.1875 1.875 1.1875 3 3 C2.77669287 6.64734979 2.61627165 8.38372835 0 11 C-3.10347254 11.33015665 -5.15781176 11.50531294 -7.875 9.875 C-9.54663625 7.08893958 -9.46376624 5.18011138 -9 2 C-6.13326387 -1.29143778 -4.01983549 -1.44301787 0 0 Z " fill="#130E0E" transform="translate(175,201)"/>
<path d="M0 0 C1.875 1.1875 1.875 1.1875 3 3 C3.59636329 6.3225955 3.29109393 7.57455503 1.375 10.375 C-1 12 -1 12 -4.125 11.9375 C-7 11 -7 11 -9 8 C-9.35384949 5.16920408 -9.3920891 3.63169911 -7.875 1.1875 C-5.12844028 -0.55198782 -3.18153026 -0.39769128 0 0 Z " fill="#130E0E" transform="translate(149,183)"/>
<path d="M0 0 C1.875 1.1875 1.875 1.1875 3 3 C3.59636329 6.3225955 3.29109393 7.57455503 1.375 10.375 C-1 12 -1 12 -4.125 11.9375 C-7 11 -7 11 -9 8 C-9.35384949 5.16920408 -9.3920891 3.63169911 -7.875 1.1875 C-5.12844028 -0.55198782 -3.18153026 -0.39769128 0 0 Z " fill="#130E0E" transform="translate(251,137)"/>
<path d="M0 0 C1.9375 1.6875 1.9375 1.6875 3 4 C2.86177181 6.83367793 2.32555369 8.48596785 0.8125 10.875 C-1 12 -1 12 -4.0625 11.875 C-7 11 -7 11 -9 8 C-9.35384949 5.16920408 -9.3920891 3.63169911 -7.875 1.1875 C-5.09996189 -0.57002414 -3.21070255 -0.46822746 0 0 Z " fill="#130E0E" transform="translate(225,158)"/>
<path d="M0 0 C1.39935013 2.79870027 1.25265405 4.90498792 1 8 C-0.1875 9.875 -0.1875 9.875 -2 11 C-4.85480169 11.42822025 -6.34492892 11.40659584 -8.8125 9.875 C-10.55198782 7.12844028 -10.39769128 5.18153026 -10 2 C-7.65446208 -2.27715738 -4.20919664 -1.01332512 0 0 Z " fill="#110D0D" transform="translate(260,168)"/>
<path d="M0 0 C3.5 0.25 3.5 0.25 5.5 2.25 C5.75 5.75 5.75 5.75 5.5 9.25 C3.5 11.25 3.5 11.25 0 11.5 C-3.5 11.25 -3.5 11.25 -5.5 9.25 C-5.75 5.75 -5.75 5.75 -5.5 2.25 C-3.5 0.25 -3.5 0.25 0 0 Z " fill="#100D0D" transform="translate(328.5,208.75)"/>
<path d="M0 0 C1.8125 1.125 1.8125 1.125 3 3 C3.39769128 6.18153026 3.55198782 8.12844028 1.8125 10.875 C-0.65507108 12.40659584 -2.14519831 12.42822025 -5 12 C-6.8125 10.875 -6.8125 10.875 -8 9 C-8.39769128 5.81846974 -8.55198782 3.87155972 -6.8125 1.125 C-4.34492892 -0.40659584 -2.85480169 -0.42822025 0 0 Z " fill="#0F0D0D" transform="translate(329,182)"/>
</svg>